<svg width="166" height="189" viewBox="0 0 166 189" fill="none" xmlns="http://www.w3.org/2000/svg">
<path d="M90.5386 186.618C85.878 189.327 80.122 189.327 75.4614 186.618L7.46137 147.087C2.84214 144.402 7.55486e-06 139.462 7.07762e-06 134.119L0 54.8805C-4.77239e-07 49.5374 2.84213 44.5978 7.46136 41.9125L75.4614 2.38234C80.122 -0.326998 85.878 -0.326983 90.5386 2.38234L158.539 41.9125C163.158 44.5977 166 49.5374 166 54.8805V134.119C166 139.462 163.158 144.402 158.539 147.087L90.5386 186.618Z" fill="#04668C"/>
<path fill-rule="evenodd" clip-rule="evenodd" d="M83.4809 68.9999C55.5444 68.9999 42.6757 87.2793 39.2059 93.261C38.9314 93.7344 38.9313 94.2655 39.2059 94.7389C42.6757 100.721 55.5444 119 83.4809 119C111.417 119 124.286 100.721 127.756 94.7389C128.03 94.2655 128.03 93.7344 127.756 93.261C124.286 87.2793 111.417 68.9999 83.4809 68.9999ZM34.8809 90.7522C38.7449 84.0909 52.9499 63.9999 83.4809 63.9999C114.012 63.9999 128.217 84.0909 132.081 90.7522C133.255 92.7771 133.255 95.2228 132.081 97.2477C128.217 103.909 114.012 124 83.4809 124C52.9499 124 38.7449 103.909 34.8809 97.2477C33.7064 95.2228 33.7064 92.7771 34.8809 90.7522Z" fill="#F9F9F9"/>
<path fill-rule="evenodd" clip-rule="evenodd" d="M83.4809 109C91.7651 109 98.4809 102.284 98.4809 93.9999C98.4809 85.7157 91.7651 78.9999 83.4809 78.9999C75.1966 78.9999 68.4809 85.7157 68.4809 93.9999C68.4809 102.284 75.1966 109 83.4809 109ZM83.4809 114C94.5266 114 103.481 105.046 103.481 93.9999C103.481 82.9543 94.5266 73.9999 83.4809 73.9999C72.4352 73.9999 63.4809 82.9543 63.4809 93.9999C63.4809 105.046 72.4352 114 83.4809 114Z" fill="#F9F9F9"/>
</svg>
