<svg width="36" height="36" viewBox="0 0 36 36" fill="none" xmlns="http://www.w3.org/2000/svg">
<path d="M17.5885 0L33.1769 9V27L17.5885 36L2 27V9L17.5885 0Z" fill="#DAEBD2"/>
<path fill-rule="evenodd" clip-rule="evenodd" d="M19.8977 7.04902C20.3096 7.18296 20.5885 7.56686 20.5885 8V16H23.5885C23.9646 16 24.3089 16.2111 24.4796 16.5462C24.6502 16.8814 24.6184 17.284 24.3972 17.5882L16.3972 28.5882C16.1424 28.9385 15.6911 29.0849 15.2792 28.951C14.8673 28.817 14.5885 28.4331 14.5885 28V20H11.5885C11.2123 20 10.868 19.7889 10.6973 19.4538C10.5267 19.1186 10.5585 18.716 10.7797 18.4118L18.7797 7.41183C19.0345 7.06153 19.4858 6.91507 19.8977 7.04902ZM13.5522 18H15.5885C16.1407 18 16.5885 18.4477 16.5885 19V24.9248L21.6247 18H19.5885C19.0362 18 18.5885 17.5523 18.5885 17V11.0752L13.5522 18Z" fill="#022E40"/>
</svg>
