<svg width="36" height="36" viewBox="0 0 36 36" fill="none" xmlns="http://www.w3.org/2000/svg">
<path d="M17.5885 0L33.1769 9V27L17.5885 36L2 27V9L17.5885 0Z" fill="#DAEBD2"/>
<path fill-rule="evenodd" clip-rule="evenodd" d="M17.5885 10C13.1702 10 9.58846 13.5817 9.58846 18C9.58846 22.4183 13.1702 26 17.5885 26C22.0067 26 25.5885 22.4183 25.5885 18C25.5885 13.5817 22.0067 10 17.5885 10ZM7.58846 18C7.58846 12.4772 12.0656 8 17.5885 8C23.1113 8 27.5885 12.4772 27.5885 18C27.5885 23.5228 23.1113 28 17.5885 28C12.0656 28 7.58846 23.5228 7.58846 18Z" fill="#022E40"/>
<path fill-rule="evenodd" clip-rule="evenodd" d="M22.0496 21.9942C22.101 21.9308 22.1515 21.8661 22.201 21.8001C22.5365 21.353 22.8277 20.8472 23.0832 20.2917C23.3684 19.6716 22.8836 19 22.201 19H12.9759C12.2933 19 11.8086 19.6716 12.0937 20.2917C12.3492 20.8472 12.6404 21.353 12.9759 21.8001C13.0254 21.8661 13.0759 21.9308 13.1273 21.9942C13.1289 21.9962 13.1304 21.9981 13.132 22C14.1555 23.258 15.5701 24 17.5885 24C19.6068 24 21.0214 23.258 22.0449 22C22.0465 21.9981 22.048 21.9962 22.0496 21.9942Z" fill="#022E40"/>
<path d="M15.5885 15.5C15.5885 16.3284 14.9169 17 14.0885 17C13.26 17 12.5885 16.3284 12.5885 15.5C12.5885 14.6716 13.26 14 14.0885 14C14.9169 14 15.5885 14.6716 15.5885 15.5Z" fill="#022E40"/>
<path d="M22.5885 15.5C22.5885 16.3284 21.9169 17 21.0885 17C20.26 17 19.5885 16.3284 19.5885 15.5C19.5885 14.6716 20.26 14 21.0885 14C21.9169 14 22.5885 14.6716 22.5885 15.5Z" fill="#022E40"/>
</svg>
