<?xml version="1.0" encoding="UTF-8"?><svg id="Layer_2" xmlns="http://www.w3.org/2000/svg" width="63mm" height="72mm" viewBox="0 0 178.58 204.09"><defs><style>.cls-1{fill:#d9ead2;}.cls-1,.cls-2{stroke-width:0px;}.cls-2{fill:#002e3f;}</style></defs><polygon class="cls-1" points="177.23 51.28 89.29 .51 1.36 51.28 1.36 152.82 89.29 203.59 177.23 152.82 177.23 51.28"/><path class="cls-2" d="m131.08,78.53v.09s0,.02,0,.03c0,.02,0,.04,0,.06,0,.06,0,.11-.02.16,0,0,0,.02,0,.02l-1.56,8.1c-.15.74-.88,1.17-1.65.95-.76-.23-1.27-1.02-1.11-1.76l.68-3.53-30.34,28.47c-.32.31-.78.4-1.2.3-.37,0-.74-.15-1.02-.44l-12.94-12.93-26.89,26.89c-.57.58-1.53.58-2.1,0-.58-.57-.58-1.52,0-2.1l27.95-27.95c.57-.57,1.53-.57,2.1,0,.06.06.12.13.16.2.04.02.07.05.11.08l12.82,12.82,29.32-27.51-3.56.45c-.76.1-1.52-.46-1.7-1.23-.17-.78.3-1.49,1.06-1.58l8.18-1.04s.02,0,.02,0h.16s.04-.02.06,0h.03s.02,0,.04,0h.05s.07,0,.11.02l.1.02s.02,0,.02,0c.07.02.13.04.2.08.02,0,.05.02.08.03.03.02.06.03.09.06.02,0,.05.02.07.05.03.02.06.02.07.05.07.05.13.11.19.17l.02.02c.06.06.11.14.15.21,0,0,0,0,.02.02s.02.02.02.03c0,.02,0,.02,0,.03.02.02.03.04.03.06.03.04.06.09.07.14.02.04.03.08.04.12.02.04.03.09.04.14h0s.02.07.02.11c0,.04.02.07.02.1Z"/><rect class="cls-2" x="40.79" y="53.59" width="4.37" height="96.91" rx="1.55" ry="1.55"/><rect class="cls-2" x="87.15" y="99.86" width="4.38" height="96.91" rx="1.55" ry="1.55" transform="translate(237.65 58.98) rotate(90)"/></svg>