<?xml version="1.0" encoding="UTF-8"?>
<svg id="Lag_1" data-name="Lag 1" xmlns="http://www.w3.org/2000/svg" xmlns:xlink="http://www.w3.org/1999/xlink" viewBox="0 0 283.46 311.81">
  <defs>
    <style>
      .cls-1, .cls-2, .cls-3, .cls-4 {
        fill: none;
      }

      .cls-1, .cls-2, .cls-5 {
        stroke: #00c;
        stroke-width: 3px;
      }

      .cls-1, .cls-2, .cls-5, .cls-4 {
        stroke-miterlimit: 10;
      }

      .cls-1, .cls-5 {
        stroke-linecap: round;
      }

      .cls-6 {
        clip-path: url(#clippath);
      }

      .cls-3, .cls-7, .cls-8 {
        stroke-width: 0px;
      }

      .cls-5, .cls-8 {
        fill: #00c;
      }

      .cls-4 {
        stroke: #fff;
        stroke-width: 16px;
      }

      .cls-7 {
        fill: #fff;
      }
    </style>
    <clipPath id="clippath">
      <rect class="cls-3" x="91.26" y="104.88" width="100.95" height="100.95"/>
    </clipPath>
  </defs>
  <circle class="cls-7" cx="141.73" cy="155.35" r="127.13"/>
  <circle class="cls-1" cx="141.73" cy="155.35" r="82.96"/>
  <circle class="cls-5" cx="141.73" cy="155.35" r="73.13"/>
  <circle class="cls-1" cx="141.73" cy="155.35" r="119.38"/>
  <g class="cls-6">
    <path class="cls-4" d="m151.2,164.82l36.25,36.25m0-91.44l-16.66,16.66m-18.92,18.92l-20.29,20.29m-18.88,18.88l-16.69,16.69m0-91.44l36.27,36.27m19.55,38.55l-10.1,10.1-39.19-39.19,10.11-10.1m18.95-18.95l10.13-10.13,39.19,39.19-10.13,10.13"/>
  </g>
  <circle class="cls-2" cx="141.73" cy="155.35" r="65"/>
  <g>
    <path class="cls-8" d="m54.05,110.09l-4.02-2.24c-3.66-2.04-5.2-5.04-2.96-9.06,1.28-2.29,3.12-3.35,5.44-3.3.23.01.5.07.7.18.7.39.96,1.28.55,2-.29.52-.63.66-1.35.77-1.37.22-2.18.81-2.73,1.81-1.17,2.09-.26,3.51,1.71,4.62l4.47,2.49c1.98,1.1,3.7,1.05,4.86-1.04.81-1.45.68-3.19-1.27-4.28l-1.11-.62-1,1.79c-.38.68-1.23.92-1.91.54-.68-.38-.92-1.23-.54-1.91l1.81-3.25c.38-.68,1.23-.92,1.91-.54l2.54,1.42c3.38,1.89,3.93,5.23,2.17,8.38-2.24,4.02-5.62,4.27-9.28,2.24Z"/>
    <path class="cls-8" d="m68.18,97.1l-11.42-9.93c-.73-.63-.76-1.62-.16-2.31l2.52-2.9c2.66-3.06,5.5-3.87,8.64-1.14,2.53,2.2,2.43,4.22,1.86,5.82l5.81.57c.35.03.84.18,1.12.42.67.58.71,1.52.12,2.2-.44.51-.93.6-1.66.52l-7.07-.98-1.59,1.83,3.96,3.45c.73.63.78,1.6.18,2.29-.6.69-1.59.79-2.31.16Zm-2.46-9.54c1.3-1.49,1.5-2.83-.13-4.25-1.73-1.5-2.98-1.01-4.42.64l-1.37,1.57,4.38,3.8,1.54-1.77Z"/>
    <path class="cls-8" d="m79.6,84.57l-9.26-11.7c-.6-.75-.45-1.74.27-2.3l5.77-4.57c.61-.48,1.53-.38,2.01.23.48.61.38,1.52-.23,2.01l-4.48,3.55,2.87,3.63,4.04-3.2c.61-.48,1.52-.38,2.01.23.48.61.38,1.52-.23,2.01l-4.04,3.2,3.1,3.91,4.48-3.55c.61-.48,1.52-.38,2.01.23.48.61.38,1.52-.23,2.01l-5.77,4.57c-.71.56-1.7.49-2.3-.27Z"/>
    <path class="cls-8" d="m94.67,74.52l-11.52-10.68c-.17-.15-.38-.38-.5-.59-.44-.8-.21-1.75.65-2.22.82-.45,1.5-.14,2.05.39l9.55,9.36.09-.05-2.7-13.09c-.14-.75-.04-1.49.78-1.94.87-.47,1.79-.15,2.22.65.11.2.19.52.23.74l2.75,15.46c.13.67-.15,1.35-.83,1.73l-.87.47c-.73.4-1.41.24-1.9-.23Z"/>
    <path class="cls-8" d="m105.7,68.45l-4.89-14.1c-.32-.91.15-1.79,1.01-2.08l6.95-2.41c.74-.26,1.56.15,1.82.88.26.74-.15,1.56-.88,1.82l-5.4,1.88,1.52,4.37,4.86-1.69c.74-.26,1.56.14,1.82.88.26.74-.14,1.56-.88,1.82l-4.86,1.69,1.64,4.71,5.4-1.88c.74-.26,1.56.15,1.82.88.25.74-.15,1.56-.88,1.82l-6.95,2.41c-.86.3-1.77-.1-2.08-1.01Z"/>
    <path class="cls-8" d="m129.3,62.29l-1.14-14.88c-.07-.96.6-1.69,1.51-1.76l7.28-.56c.78-.06,1.47.54,1.53,1.32s-.54,1.48-1.32,1.53l-5.65.43.38,4.98,5.08-.39c.78-.06,1.47.54,1.54,1.32.06.78-.54,1.48-1.32,1.53l-5.08.39.45,5.83c.07.96-.6,1.69-1.51,1.76-.91.07-1.68-.55-1.76-1.51Z"/>
    <path class="cls-8" d="m144.01,56.88l.53-5.67c.36-3.88,2.73-6.24,7.05-5.84,4.32.41,6.18,3.17,5.81,7.05l-.54,5.67c-.36,3.88-2.7,6.22-7.02,5.81-4.32-.41-6.2-3.14-5.84-7.03Zm9.63.62l.48-5.12c.23-2.41-.45-3.8-2.81-4.02-2.33-.22-3.31,1.02-3.53,3.43l-.48,5.12c-.23,2.43.5,3.81,2.83,4.03,2.35.22,3.28-1,3.51-3.43Z"/>
    <path class="cls-8" d="m161.52,63.69l4.12-14.35c.27-.93,1.15-1.37,2.03-1.12l4.07,1.17c4.27,1.23,6.24,4.85,4.55,10.72-1.54,5.37-5.3,8-9.03,6.93l-4.62-1.33c-.88-.25-1.39-1.1-1.12-2.03Zm5.79.39c3.3.95,4.88-1.74,5.79-4.89.81-2.82.96-6.16-2.34-7.11l-2.32-.67-3.45,12,2.32.67Z"/>
    <path class="cls-8" d="m178.52,69.18l6.63-13.37c.43-.86,1.38-1.14,2.19-.74l4.03,2c3.33,1.65,4.15,4.21,2.8,6.93-.73,1.47-2.14,2.33-3.62,2.27l-.04.09c1.24,1.43,1.51,3.1.56,5.01-1.42,2.87-3.96,3.9-7.83,1.98l-3.98-1.98c-.82-.41-1.17-1.33-.74-2.2Zm5.71,1.47c1.86.92,3.05.88,3.92-.87.86-1.72.18-2.76-1.5-3.59l-2.42-1.2-2.25,4.54,2.26,1.12Zm3.7-6.87c1.47.73,2.52.29,3.18-1.03.64-1.28.36-2.43-1.1-3.16l-2.49-1.24-2.08,4.19,2.49,1.24Z"/>
    <path class="cls-8" d="m195.73,73.08l3.41-4.56c2.34-3.12,5.58-3.91,9.06-1.31,3.48,2.6,3.62,5.92,1.28,9.05l-3.41,4.56c-2.34,3.12-5.55,3.9-9.02,1.3-3.48-2.6-3.66-5.92-1.32-9.04Zm7.89,5.55l3.08-4.12c1.45-1.94,1.6-3.48-.3-4.9-1.87-1.4-3.35-.85-4.8,1.08l-3.08,4.12c-1.46,1.96-1.55,3.51.32,4.91,1.89,1.42,3.32.86,4.78-1.1Z"/>
    <path class="cls-8" d="m207,88.02l11.05-10.33c.7-.66,1.69-.59,2.31.08.62.67.62,1.66-.08,2.32l-10.16,9.49,3.9,4.18c.55.59.52,1.47-.07,2.02-.59.55-1.47.52-2.02-.07l-5.02-5.37c-.62-.67-.62-1.66.08-2.31Z"/>
    <path class="cls-8" d="m216.71,98.91l12.58-8.02c.81-.52,1.77-.27,2.26.5l2.28,3.57c2.39,3.75,1.46,7.76-3.69,11.04-4.71,3-9.27,2.48-11.35-.78l-2.58-4.06c-.49-.77-.31-1.74.5-2.26Zm4.07,4.12c1.84,2.89,4.81,1.93,7.57.17,2.48-1.58,4.8-3.98,2.96-6.88l-1.3-2.04-10.52,6.7,1.3,2.04Z"/>
  </g>
  <g>
    <path class="cls-8" d="m111.74,260.48l3.87-14.85c.24-.93,1.12-1.4,2-1.17.88.23,1.41,1.07,1.17,2l-3.87,14.84c-.24.93-1.12,1.4-2,1.17s-1.41-1.07-1.17-2Z"/>
    <path class="cls-8" d="m123.12,263.13c-.4-.36-.61-.78-.56-1.27.09-.75.73-1.3,1.48-1.21.34.04.6.2.92.4.97.61,1.98.97,3.11,1.11,2.12.25,3.45-1.03,3.73-3.35l.13-1.11c-.72.57-2,1.2-3.65,1-3.54-.42-5.41-2.92-4.96-6.67.43-3.59,2.81-5.95,6.94-5.46,3.74.45,5.89,3.11,5.42,6.98l-.59,4.91c-.5,4.18-2.86,7.09-7.46,6.55-1.88-.22-3.57-1.03-4.52-1.87Zm9.15-8.23l.21-1.73c.27-2.27-.76-3.52-2.57-3.74-1.76-.21-3.12.7-3.39,2.97-.27,2.3.85,3.4,2.61,3.61,1.32.16,2.46-.46,3.15-1.12Z"/>
    <path class="cls-8" d="m141.01,264.45c-.43-.27-.7-.65-.72-1.14-.03-.75.54-1.38,1.24-1.41.29-.01.52.08.76.2,1.09.55,2.27.84,3.8.78,2.73-.11,3.14-1.43,3.08-2.81-.07-1.69-1.2-2.5-3.12-2.42l-1.95.08c-.78.03-1.38-.57-1.41-1.32-.03-.78.51-1.43,1.29-1.46l1.58-.07c1.43-.06,2.84-.54,2.76-2.43-.07-1.61-.93-2.46-2.7-2.38-1.22.05-2.27.43-3.49,1.06-.28.14-.48.23-.72.24-.7.03-1.3-.52-1.33-1.22-.02-.44.12-.76.5-1.11.6-.57,2.61-1.75,5.1-1.85,3.87-.16,5.75,1.79,5.87,4.83.06,1.4-.35,2.9-1.69,3.79,1.54.69,2.38,2.14,2.46,4.16.12,2.86-1.38,5.62-6.11,5.82-1.9.08-4-.56-5.23-1.34Z"/>
    <path class="cls-8" d="m159.25,263.14c-.5-.21-.83-.52-.94-1.02-.16-.74.3-1.45,1.02-1.6.18-.04.37-.02.56.01,1.15.29,2.43.55,4.01.21,2.77-.59,2.92-2.27,2.62-3.69-.36-1.7-1.59-2.88-3.73-2.42-1.22.26-1.92.73-2.6,1.27-.23.18-.44.31-.69.36-.71.15-1.53-.31-1.66-1.16l-1.03-7.23c-.11-.77.36-1.54,1.13-1.7l6.74-1.43c.79-.17,1.59.35,1.76,1.14.16.76-.36,1.56-1.15,1.73l-5.49,1.17.56,3.9c.44-.31,1.31-.7,2.15-.88,4.07-.86,6.43,1.35,7.12,4.6.64,3-.31,6.18-4.96,7.17-2.16.46-4.26.08-5.41-.42Z"/>
  </g>
</svg>