<?xml version="1.0" encoding="UTF-8"?><svg xmlns="http://www.w3.org/2000/svg" width="63mm" height="72mm" viewBox="0 0 178.58 204.09"><defs><style>.cls-1{fill:#ed1c24;}.cls-1,.cls-2,.cls-3{stroke-width:0px;}.cls-2{fill:#d9ead2;}.cls-3{fill:#002e3f;}</style></defs><g id="Layer_1"><path class="cls-1" d="m124.29,100.16s.01,0,.02,0c-.01,0-.02,0-.03,0h0Z"/><path class="cls-1" d="m125.41,100.46s.09.08.14.12c-.06-.06-.12-.11-.18-.16.02,0,.03.02.04.03Z"/><path class="cls-1" d="m125.41,100.46s.09.08.14.12c-.06-.06-.12-.11-.18-.16.02,0,.03.02.04.03Z"/></g><g id="Layer_2"><polygon class="cls-2" points="177.23 51.28 89.29 .51 1.36 51.28 1.36 152.82 89.29 203.59 177.23 152.82 177.23 51.28"/><path class="cls-3" d="m140.78,95.6s4.89-8.78-5.95-18.03c0,0-2.77-3.59-8.43-3.77,0,0,2.59-5.54-8.72-8.9,0,0-4.07-.82-6.01-3.3,0,0-2.95-4.65-9.19-4.83,0,0-4.12-.82-7.95,2,0,0-7.84-8.01-17.79.29,0,0-12.02-.24-15.61,8.72,0,0-14.61,1.36-15.5,16.32,0,0-13.43,1.36-9.31,23.33,0,0-1.3,24.81,22.57,11.43,0,0,5.22,12.02,20.87,8.78,0,0,11.13,2.06,14.07-.12l3.55-1.02c1.39-.58,2.91-1.47,4.05-2.81,0,0,10.25,1.77,15.44-1.53,0,0,9.31,3.71,14.67-.12,0,0-1.12,10.15-15.44,10.17,0,0-1.77.91.06,2.14,0,0,3.78,2.59,3.71,5.66,0,0-2.24-.24-3.06,1.12,0,0-4.36-9.72-8.37-9.43,0,0-11.62-4.41-11.05-5.21h0c-1.91.8-3.55,1.03-3.55,1.03,0,0,6.66,4.65,12.31,5.72,0,0,6.89,3.01,8.84,11.08,0,0,1.41,1,2.53-.59,0,0,3.18-1.12,4.54-.82,0,0,1.53-.65.65-2.3,0,0,.24-2.65-2.18-5.66,0,0,13.43-2.42,14.38-15.14,0,0,5.72-3.95,5.89-10.78,0,0,5.19-7.95,0-13.43Zm-94.75,24.04s-7.37.06-7.01-12.9c0,0-5.42-15.97,8.43-20.51,0,0,1.24-11.02,11.78-15.44,0,0-3.01,10.37,4.54,14.97-2.51,10.1-13.24,8.8-13.24,8.8-2.63,1.45,0,2.63,0,2.63l2,.47c-1.41,1.57-1.69,8.13-1.69,8.13,1.81,1.65,2.51-.43,2.51-.43.59-7.58,2.87-8.6,2.87-8.6,9.55-2.08,10.72-12.88,10.72-12.88,2.28-11,10.49-11.64,10.49-11.64,0,0-4.56-.38.24-.03,4.79.35-.24-2.87-.24-2.87-.27-5.66-2.75.71-2.75.71-7.5,1.45-10.14,12.77-10.14,12.77,0,0-5.32-4.24-2.32-12.02,0,0,5.24-10.19,14.79-9.02,0,0,8.37-7.07,15.26-1.3,0,0-4.54,6.3-4.42,9.9,0,0-2.3,7.6-4.89,8.72,0,0-13.32,7.66-7.9,19.74,0,0-.47,5.07-8.19,5.24,0,0-7.78,17.5-20.86,15.56Zm92.1-11.08c-2.24,17.03-21.62,10.84-21.62,10.84-5.01,3.3-16.03,1.65-16.03,1.65-7.42,7.66-21.09,3.83-21.09,3.83-14.32,3.89-18.27-8.25-18.27-8.25,3.01-1.06,6.89-10.21,6.89-10.21,5.48,1.28,9.19-5.07,9.19-5.07,5.62,3.97,13.87.43,13.87.43,8.52-4.71,11.12-4.4,11.12-4.4-.08,1.26,3.34,1.41,3.34,1.41,2.63-.04,3.97,1.45,3.97,1.45,2.91.79,1.92-1.45,1.92-1.45-.27-1.85-6.32-2.91-6.32-2.91-1.85.12-1.1-1.14-1.1-1.14-.86-.67,3.77-5.85,3.77-5.85.63-2.4-1.37-1.53-1.37-1.53-2.67.2-5.26,7.39-5.26,7.39-2.06-.02-8.6,3.55-8.6,3.55-10.55,5.72-14.73-.59-14.73-.59-4.01-8.66,5.48-15.85,5.48-15.85,3.24.71,7.31-10.9,7.31-10.9.77-5.01,4.24-9.02,4.24-9.02,7.48-5.3,12.85-.77,12.85-.77,2.95,4.01,6.72,5.3,6.72,5.3,10.55,2.59,9.31,6.42,9.31,6.42-.29,7.19-12.02,2.12-12.02,2.12-2.59-2.89-7.25-2.59-7.25-2.59l-.24-3.54c.35-1.77-1.89-1.41-1.89-1.41-1.3.06-.47,6.19-.47,6.19-1.83.41-4.71,5.72-4.71,5.72.29,3.65,2.24,1.53,2.24,1.53,1.12-3.77,4.65-5.36,4.65-5.36,2.24-.71,10.78,3.24,10.78,3.24,9.13,2.36,10.9-2.59,10.9-2.59,5.6-.65,10.67,7.25,10.67,7.25,4.07,3.95,2.36,9.78,2.36,9.78-3.95,6.19-12.61,4.71-12.61,4.71.75-3.28-1-4.42-1-4.42-1.24-2.42-2.3.71-2.3.71,1.18,17.15-17.5,13.67-17.5,13.67-17.03,5.95-27.52,2.89-27.52,2.89-2.71-.18-1.53,1.94-1.53,1.94.06,1.47,7.13,2,7.13,2l-.53,1.59c-.24,2.06,2.3,1.06,2.3,1.06l1.3-3.06c6.13.65,18.56-3.65,18.56-3.65,15.03,4.12,20.74-10.31,20.74-10.31,7.9,1.24,12.96-2.77,12.96-2.77,3.54,3.54-.59,10.96-.59,10.96Z"/><path class="cls-3" d="m115.99,145.45c-.81,0-1.41-.41-1.49-.46l-.25-.17-.07-.29c-1.72-7.16-7.58-10.15-8.3-10.49-4.96-.96-10.51-4.48-12.09-5.53-3.48,1.77-12.4.28-14.04-.02-13.6,2.74-19.67-5.81-21.21-8.5-7.37,3.98-13.15,4.72-17.18,2.21-6.1-3.79-5.91-13.52-5.86-14.68-1.6-8.6-.76-15.16,2.49-19.5,2.44-3.26,5.53-4.27,6.87-4.57,1.15-13.34,13.11-15.96,15.69-16.37,3.65-8.24,13.94-8.77,15.89-8.79,8.84-7.19,16.18-2.14,18.14-.51,3.67-2.4,7.4-1.88,7.98-1.78,6.56.22,9.66,5,9.79,5.2,1.69,2.15,5.45,2.93,5.49,2.94,4.93,1.46,7.98,3.5,9.13,6.07.51,1.14.54,2.16.44,2.88,4.95.5,7.57,3.43,7.99,3.95,9.61,8.24,7.2,16.33,6.32,18.45,4.51,5.33.61,12.53-.15,13.82-.26,6.17-4.68,10.01-5.92,10.97-.99,10.59-10.41,14.23-13.8,15.21,1.51,2.31,1.64,4.31,1.64,4.99.37.81.29,1.45.15,1.85-.33.93-1.2,1.32-1.29,1.36l-.24.1-.25-.05c-.26-.06-.64-.04-1.09.03-1.28.18-2.46.73-3.57,1.38-.3.18-.58.26-.81.3-.14.02-.28.04-.41.04Zm-.33-1.66c.31.12.75.1,1.18-.51l.15-.21.24-.09c.53-.19,3.08-1.05,4.64-.9.09-.07.21-.18.26-.33.06-.19.01-.44-.15-.75l-.11-.21.02-.24c0-.09.15-2.4-2.01-5.08l-.85-1.05,1.33-.24c.52-.1,12.83-2.47,13.72-14.41l.03-.38.32-.22c.05-.04,5.38-3.81,5.55-10.14v-.23s.13-.19.13-.19c.05-.07,4.77-7.5.09-12.44l-.41-.43.29-.51c.18-.34,4.41-8.35-5.77-17.03l-.11-.12c-.1-.13-2.64-3.3-7.81-3.46l-1.22-.04.52-1.11s.5-1.17-.19-2.66c-.67-1.45-2.61-3.51-8.04-5.13-.11-.02-4.31-.9-6.41-3.57-.16-.24-2.86-4.36-8.58-4.53h-.13s-3.84-.72-7.32,1.85l-.56.41-.49-.5c-.3-.3-7.46-7.37-16.71.35l-.23.19h-.3c-.12-.02-11.51-.12-14.85,8.21l-.18.45-.49.05c-.57.05-13.94,1.49-14.77,15.57l-.04.68-.68.07s-3.74.44-6.45,4.08c-2.96,3.98-3.68,10.14-2.15,18.3l.02.09v.1c-.01.1-.44,9.89,5.1,13.33,3.64,2.26,9.11,1.37,16.27-2.65l.77-.43.36.81c.2.47,5.18,11.38,19.97,8.31l.15-.03.15.03c2.61.48,9.21,1.37,12.32.53l-.53-.37,1.98-.27,3.8-1.14c1.37-.63,2.52-1.45,3.36-2.42l.3-.35.45.08c.1.02,10.01,1.67,14.87-1.42l.35-.22.38.15c.09.03,8.97,3.5,13.91-.03l1.46-1.05-.2,1.79c-.01.11-1.36,10.75-16,10.89-.1.08-.19.17-.2.22h0s.06.17.47.45c.17.12,4.14,2.88,4.07,6.34l-.02.87-.87-.09s-1.76-.15-2.29.74l-.8,1.31-.63-1.39c-1.6-3.56-5.09-9.16-7.57-8.95h-.18s-.17-.05-.17-.05c-7.61-2.89-10.16-4.27-11.05-4.98-.44.17-.86.3-1.24.41,2.28,1.41,6.62,3.85,10.42,4.56l.17.05c.29.13,7.09,3.17,9.21,11.28Zm-7.1-12.88c3.54-.04,6.93,5.81,8.33,8.59.09.17.29.22.47.14.55-.26,1.13-.36,1.61-.41-.52-2.26-3.25-4.17-3.28-4.2-.82-.55-1.22-1.19-1.17-1.88.06-1.02,1.09-1.58,1.2-1.64l.17-.09h.19c9.96-.02,13.18-5.03,14.19-7.76-5.03,2.14-11.67,0-13.34-.6-4.88,2.8-13.19,1.8-15.21,1.5-.78.83-1.76,1.55-2.92,2.16,1.72.95,5.89,2.71,9.76,4.18h0Zm-21.4-4.24c-3.81,0-6.93-.73-7.79-.95-14.71,3.87-18.99-8.71-19.03-8.83l-.24-.75.74-.26c1.94-.69,4.97-6.35,6.42-9.76l.26-.62.66.15c4.83,1.14,8.28-4.64,8.31-4.7l.44-.76.72.5c5.18,3.66,13.01.38,13.09.35,8.43-4.67,11.24-4.49,11.53-4.46l.75.09-.05.76c.17.19,1.43.51,2.57.56,2.37.01,3.83,1.07,4.34,1.53.69.16.9.06.9.05,0-.03-.05-.29-.12-.46l-.06-.2c-.1-.65-2.79-1.72-5.58-2.22-.9.04-1.49-.2-1.81-.72-.24-.39-.23-.83-.12-1.21-.01-.05-.02-.11-.03-.17-.12-1.29,2.36-4.31,3.94-6.1.05-.26.06-.41.05-.5-.1,0-.26.04-.38.09l-.25.06c-1.48.11-3.56,4.07-4.57,6.86l-.19.54h-.57s0,0-.01,0c-1.36,0-5.75,2.12-8.2,3.46-11.07,6-15.74-.78-15.79-.85-4.29-9.25,5.56-16.86,5.66-16.94l.3-.22.36.08c1.5.34,4.5-5.05,6.35-10.31.81-5.14,4.27-9.18,4.42-9.35l.14-.13c7.9-5.6,13.77-.77,13.83-.72l.13.14c2.75,3.74,6.3,5.01,6.33,5.02,5.03,1.23,8.22,2.96,9.42,5.1.58,1.04.5,1.87.43,2.19-.09,1.7-.75,2.95-1.98,3.72-3.59,2.26-10.86-.83-11.16-.97l-.16-.07-.12-.13c-2.29-2.56-6.56-2.33-6.6-2.33l-.8.05-.3-4.44.02-.1c.04-.19.02-.3,0-.34-.11-.12-.51-.17-.83-.14-.26.64-.24,3.01.07,5.3l.1.73-.72.16c-.88.2-2.76,2.76-4.07,5.1.11,1,.34,1.19.34,1.19.04-.02.21-.13.37-.26,1.27-3.93,4.88-5.59,5.03-5.66,2.47-.79,9.76,2.47,11.38,3.21,8.17,2.09,9.81-1.94,9.88-2.11l.17-.46.49-.06c5.77-.66,10.79,6.64,11.38,7.53,4.28,4.23,2.58,10.26,2.5,10.52l-.09.21c-4.19,6.56-13.05,5.14-13.42,5.07l-.84-.14.19-.83c.6-2.63-.62-3.54-.67-3.57l-.16-.11-.1-.18c-.11-.22-.21-.35-.27-.42-.15.16-.36.53-.5.88.3,4.94-.97,8.72-3.79,11.23-4.97,4.43-13,3.38-14.45,3.15-16.31,5.65-26.57,3.17-27.72,2.86-.6-.03-.82.09-.84.13-.04.06,0,.38.14.64l.09.25c.51.5,3.44,1.11,6.39,1.34l1.03.08-.83,2.48c-.02.22.03.29.03.29.1.08.51.05.88-.05l1.39-3.27.59.06c5.88.63,18.09-3.57,18.21-3.61l.24-.08.24.07c14.17,3.89,19.56-9.27,19.78-9.83l.24-.6.64.1c7.43,1.16,12.29-2.57,12.34-2.61l.56-.44.51.5c3.68,3.68.2,10.68-.38,11.78-.65,4.7-2.64,8.14-5.92,10.22-6.06,3.85-14.5,1.77-16.37,1.24-4.8,2.85-13.81,1.89-15.86,1.63-3.89,3.8-9.21,4.76-13.6,4.76Zm-7.78-2.61l.21.06c.13.04,13.3,3.61,20.3-3.61l.29-.3.41.06c.11.01,10.77,1.56,15.47-1.53l.32-.21.37.12c.09.03,9.32,2.9,15.39-.96,2.89-1.83,4.63-4.94,5.2-9.22l.09-.29c.04-.07,3.41-6.24,1.15-9.49-1.59,1.02-6.04,3.37-12.34,2.57-1.31,2.72-7.61,13.85-21.2,10.27-1.62.55-10.7,3.54-16.75,3.68-.82.02-1.55.52-1.87,1.27l-.66,1.55-.31.12c-.29.12-1.8.66-2.76-.08-.35-.27-.75-.81-.64-1.82l.04-.16.21-.62c-4.25-.41-6.54-1.24-6.82-2.47-.17-.37-.53-1.33-.02-2.13.41-.65,1.21-.95,2.38-.87l.17.03c.1.03,10.48,2.91,27.03-2.87l.2-.07.21.04c.08.01,8.54,1.52,13.31-2.74,2.46-2.19,3.55-5.59,3.24-10.09v-.16s.04-.15.04-.15c.16-.49.8-2.08,1.99-2.17.67-.04,1.16.41,1.84,1.06.41.35,1.17,1.48,1.23,3.36.02.58.46,1.05,1.04,1.06,2.61.03,7.29-.52,9.83-4.39.19-.77,1.2-5.6-2.17-8.88l-.12-.14c-.05-.07-4.55-7.06-9.47-6.91-.76,1.33-3.54,4.69-11.62,2.6l-.14-.05c-3.43-1.58-8.87-3.63-10.2-3.2h0s-3.14,1.49-4.13,4.82l-.05.18-.13.14c-.11.12-1.11,1.17-2.21.79-1.23-.42-1.37-2.21-1.42-2.8l-.02-.24.11-.21c.4-.73,2.1-3.75,3.81-5.27.45-.4.69-.96.64-1.55-.16-1.82-.2-4.19.51-5.05.23-.28.55-.44.89-.46.17-.03,1.51-.2,2.29.61.28.29.58.81.45,1.65l.18,2.68c1.51.05,4.8.43,6.97,2.73,2.01.84,7.19,2.48,9.51,1.02.78-.49,1.18-1.31,1.23-2.5l.04-.22s.63-3.09-8.74-5.39c-.23-.08-4.06-1.43-7.11-5.52-.62-.48-5.25-3.72-11.71.8-.45.55-3.33,4.18-4,8.54l-.04.14c-.97,2.76-4.3,11.47-7.79,11.47h-.03c-1.28,1.07-7.25,6.48-5.61,12.95.32,1.27,1.07,2.39,2.17,3.08,1.95,1.23,5.76,2.28,12.06-1.13.63-.35,5.86-3.17,8.41-3.6.73-1.9,2.95-7.06,5.65-7.42.37-.13,1.29-.38,1.96.19.54.47.67,1.25.39,2.33l-.05.19-.13.15c-1.59,1.78-3.31,4.03-3.63,4.87l-.13.42.12.35c.08,0,.18,0,.31,0h.1s.09,0,.09,0c1.53.27,6.48,1.3,6.96,3.47.13.33.43,1.35-.19,2.08-.78.9-2.24.51-2.72.38l-.17-.11-.22-.13s-1.13-1.19-3.26-1.19c-.03,0-.06,0-.09,0-.7-.03-2.89-.2-3.76-1.17-.06-.07-.11-.14-.16-.21-1.06.15-4.04.88-10.16,4.26-.39.17-7.26,3.05-12.95.53-.63-.28-1.37-.12-1.81.41-1.34,1.62-3.74,3.85-6.9,3.98-.82.03-1.56.48-1.91,1.22-1.05,2.2-2.89,5.69-4.8,7.58-.57.56-.73,1.41-.33,2.1,1.75,3.09,6.37,8.53,16.4,5.8l.21-.06Zm-2.32-11.35h0s0,0,0,0Zm25.39-44.42h-.03s.02,0,.03,0Zm-54.36,52.31c-.69,0-1.4-.05-2.12-.16-.43-.01-2.56-.19-4.49-2.16-2.29-2.33-3.39-6.18-3.27-11.43-.36-1.13-2.47-8.43.56-14.51,1.57-3.14,4.24-5.4,7.94-6.72.39-2.3,2.53-11.53,12.2-15.58l1.55-.65-.46,1.61c-.03.1-2.74,9.84,4.18,14.06l.5.31-.14.57c-2.42,9.71-12.05,9.54-13.83,9.43-.5.31-.55.51-.55.51.02.11.31.37.63.54l3.24.76-.91,1.01c-.84.93-1.33,4.76-1.46,7.23.24.17.42.21.51.19.14-.04.31-.26.39-.44.61-7.56,2.88-8.95,3.33-9.15l.16-.05c8.85-1.93,10.05-11.77,10.1-12.19,1.54-7.43,5.71-10.41,8.52-11.59,0-.06,0-.13.01-.2.04-.53.06-.72.91-.72h.02s.09,0,.17,0c.44.01,1.07.06,1.96.12.47.04.79.03,1,0-.34-.39-1.04-.95-1.73-1.4l-.35-.22-.02-.41c-.03-.55-.07-.94-.12-1.2-.33.5-.76,1.34-1.07,2.16l-.16.41-.44.08c-6.9,1.34-9.48,12.05-9.51,12.16l-.29,1.24-1-.79c-.06-.05-5.75-4.71-2.57-12.94.26-.51,5.54-10.51,15.3-9.56,1.57-1.19,9.42-6.6,16.02-1.08l.57.48-.44.61c-1.22,1.69-4.36,6.68-4.27,9.4v.13s-.03.13-.03.13c-.25.81-2.49,7.99-5.34,9.23-.44.26-12.54,7.41-7.48,18.67l.09.19-.02.21c0,.06-.61,5.55-8.47,5.95-1.29,2.69-8.14,15.73-19.32,15.73Zm10.03-48.4c-8.68,4.53-9.86,14.02-9.87,14.12l-.06.51-.49.16c-3.53,1.15-6.04,3.19-7.48,6.06-2.93,5.86-.46,13.35-.44,13.42l.05.14v.14c-.13,4.77.82,8.36,2.76,10.37,1.62,1.68,3.37,1.71,3.44,1.71h.12c.64.1,1.26.15,1.88.15,11.21,0,18.06-15.07,18.13-15.23l.21-.47h.51c2.16-.06,3.7-.51,4.79-1.11,1.78-.98,2.49-3.14,1.92-5.08-3.38-11.4,8.87-18.61,9-18.69,1.69-.74,3.62-5.32,4.48-8.14-.01-3.16,2.98-7.9,4.13-9.62-6.19-4.44-13.57,1.68-13.65,1.74l-.27.23-.35-.04c-8.87-1.1-13.93,8.49-13.98,8.59-1.63,4.22-.58,7.32.54,9.14.25.41.86.34,1.02-.11,1.18-3.3,3.87-8.95,8.85-10.63.44-.15.82-.44,1.02-.86,1.25-2.69,2.16-2.55,2.49-2.49.76.12,1.09.87,1.25,1.82.09.53.35,1.02.78,1.36,1.04.81,1.88,1.78,1.59,2.66-.34,1.02-1.71,1.05-2.87.97-.04,0-.08,0-.11,0v.04c-.31.03-7.64.77-9.76,11,0,.03-1.09,9.18-8.59,12.6-2.39,1.09-4.15,3.21-4.61,5.79-.15.85-.28,1.84-.37,3l-.04.2c-.04.13-.46,1.28-1.54,1.56-.73.19-1.5-.08-2.28-.79l-.28-.25.02-.37c.04-.96.27-5.23,1.26-7.56l-1.1-.27c-.27-.12-1.59-.77-1.64-1.97-.03-.79.5-1.5,1.58-2.1l.23-.12.26.03c.37.04,8.55.92,11.67-6.14.36-.82.1-1.78-.57-2.37-4.41-3.92-4.07-10.12-3.6-13.04Z"/></g></svg>