<svg width="671" height="125" viewBox="0 0 671 125" fill="none" xmlns="http://www.w3.org/2000/svg">
<path d="M202.848 38.984H195.232L192.736 53H181.216L189.344 6.92004H208.864C213.685 6.92004 217.12 8.02937 219.168 10.248C220.661 11.9547 221.408 14.1307 221.408 16.776C221.408 17.672 221.323 18.6107 221.152 19.592L219.872 26.824C219.232 30.3653 217.355 33.288 214.24 35.592C211.125 37.8533 207.328 38.984 202.848 38.984ZM204.832 16.904H199.072L196.96 29H202.656C206.155 29 208.181 27.4427 208.736 24.328L209.184 21.704C209.269 21.32 209.312 20.808 209.312 20.168C209.312 19.528 208.992 18.824 208.352 18.056C207.712 17.288 206.539 16.904 204.832 16.904ZM254.157 53H222.029L230.157 6.92004H262.285L260.493 16.904H239.885L238.413 25.544H255.437L253.645 35.528H236.621L235.341 43.016H255.949L254.157 53ZM293.657 53H261.529L269.657 6.92004H301.785L299.993 16.904H279.385L277.913 25.544H294.937L293.145 35.528H276.121L274.841 43.016H295.449L293.657 53ZM327.717 6.92004C332.581 6.92004 336.037 7.98671 338.085 10.12C339.621 11.7413 340.389 13.7893 340.389 16.264C340.389 17.1173 340.303 18.0133 340.133 18.952L339.237 23.944C338.725 26.7173 337.829 28.9573 336.549 30.664C335.311 32.3707 333.925 33.5867 332.389 34.312L338.213 53H325.285L319.909 35.784H315.941L313.317 53H301.029L309.157 6.92004H327.717ZM323.685 16.904H318.885L317.221 28.04H321.701C323.962 28.04 325.583 27.5067 326.565 26.44C327.546 25.3307 328.037 23.88 328.037 22.088C328.037 18.632 326.586 16.904 323.685 16.904ZM202.848 102.984H195.232L192.736 117H181.216L189.344 70.92H208.864C213.685 70.92 217.12 72.0294 219.168 74.248C220.661 75.9548 221.408 78.1307 221.408 80.776C221.408 81.6721 221.323 82.6107 221.152 83.592L219.872 90.824C219.232 94.3653 217.355 97.288 214.24 99.592C211.125 101.853 207.328 102.984 202.848 102.984ZM204.832 80.904H199.072L196.96 93H202.656C206.155 93 208.181 91.4427 208.736 88.328L209.184 85.704C209.269 85.32 209.312 84.808 209.312 84.168C209.312 83.528 208.992 82.824 208.352 82.056C207.712 81.288 206.539 80.904 204.832 80.904ZM254.157 117H222.029L230.157 70.92H262.285L260.493 80.904H239.885L238.413 89.544H255.437L253.645 99.528H236.621L235.341 107.016H255.949L254.157 117ZM288.217 70.92C293.081 70.92 296.537 71.9867 298.585 74.12C300.121 75.7413 300.889 77.7893 300.889 80.264C300.889 81.1173 300.803 82.0134 300.633 82.952L299.737 87.944C299.225 90.7173 298.329 92.9573 297.049 94.664C295.811 96.3708 294.425 97.5867 292.889 98.312L298.713 117H285.785L280.409 99.784H276.441L273.817 117H261.529L269.657 70.92H288.217ZM284.185 80.904H279.385L277.721 92.04H282.201C284.462 92.04 286.083 91.5067 287.065 90.44C288.046 89.3307 288.537 87.88 288.537 86.088C288.537 82.632 287.086 80.904 284.185 80.904ZM335.081 100.104H318.057L315.113 117H303.529L311.657 70.92H343.785L341.993 80.904H321.385L319.785 90.12H336.809L335.081 100.104ZM366.925 70.472C377.207 70.472 382.349 74.6747 382.349 83.08C382.349 84.488 382.199 86.0027 381.901 87.624L379.661 100.424C378.637 106.355 376.418 110.749 373.005 113.608C369.591 116.467 364.791 117.896 358.605 117.896C352.418 117.896 348.109 116.467 345.677 113.608C344.013 111.645 343.181 108.936 343.181 105.48C343.181 103.944 343.351 102.259 343.693 100.424L345.933 87.624C347.938 76.1893 354.935 70.472 366.925 70.472ZM360.333 107.976C362.466 107.976 364.173 107.421 365.453 106.312C366.733 105.203 367.629 103.155 368.141 100.168L370.317 87.88C370.445 87.0267 370.509 86.2587 370.509 85.576C370.509 82.12 368.759 80.392 365.261 80.392C360.866 80.4773 358.242 82.9733 357.389 87.88L355.213 100.168C355.042 101.235 354.957 102.344 354.957 103.496C354.957 106.483 356.749 107.976 360.333 107.976ZM411.217 70.92C416.081 70.92 419.537 71.9867 421.585 74.12C423.121 75.7413 423.889 77.7893 423.889 80.264C423.889 81.1173 423.803 82.0134 423.633 82.952L422.737 87.944C422.225 90.7173 421.329 92.9573 420.049 94.664C418.811 96.3708 417.425 97.5867 415.889 98.312L421.713 117H408.785L403.409 99.784H399.441L396.817 117H384.529L392.657 70.92H411.217ZM407.185 80.904H402.385L400.721 92.04H405.201C407.462 92.04 409.083 91.5067 410.065 90.44C411.046 89.3307 411.537 87.88 411.537 86.088C411.537 82.632 410.086 80.904 407.185 80.904ZM446.689 70.92L453.537 93L468.257 70.92H480.353L472.225 117H460.641L465.249 91.016L455.393 106.504H447.009L442.657 91.016L438.049 117H426.529L434.657 70.92H446.689ZM504.125 117L504.509 106.952H493.821L490.685 117H478.461L494.909 70.92H516.029L516.285 117H504.125ZM501.501 82.12L496.445 98.376H504.829L505.533 82.12H501.501ZM565.989 70.92L557.925 117H546.341L538.277 91.784L533.925 117H522.341L530.469 70.92H542.373L550.309 94.472L554.469 70.92H565.989ZM583.158 117.896C577.057 117.896 572.833 116.573 570.486 113.928C568.865 112.051 568.054 109.427 568.054 106.056C568.054 104.605 568.203 103.048 568.502 101.384L571.126 86.664C573.046 75.8693 579.979 70.472 591.926 70.472C596.875 70.472 600.63 71.5387 603.19 73.672C605.75 75.7627 607.03 78.6427 607.03 82.312C607.03 84.0187 606.774 85.7253 606.262 87.432C605.793 89.096 605.323 90.3333 604.854 91.144L604.15 92.424H592.822C594.23 90.8027 594.934 88.4987 594.934 85.512C594.934 83.9333 594.529 82.6961 593.718 81.8C592.907 80.8614 591.713 80.392 590.134 80.392C585.825 80.392 583.265 82.7813 582.454 87.56L580.214 100.488C580.001 101.597 579.894 102.685 579.894 103.752C579.894 106.568 581.579 107.976 584.95 107.976C589.003 107.976 591.435 105.693 592.246 101.128H603.766L603.446 102.984C601.739 112.925 594.977 117.896 583.158 117.896ZM640.532 117H608.404L616.532 70.92H648.66L646.868 80.904H626.26L624.788 89.544H641.812L640.02 99.528H622.996L621.716 107.016H642.324L640.532 117Z" fill="#04668C"/>
<path fill-rule="evenodd" clip-rule="evenodd" d="M62.2431 70.2247L92.6513 52.6685V17.5562L62.2431 0L31.8349 17.5562V52.6685L62.2431 70.2247ZM125.446 70.2247L155.854 52.6685V17.5562L125.446 0L95.0377 17.5562V52.6685L125.446 70.2247ZM93.6103 125L124.019 107.444V72.3315L93.6103 54.7753L63.2021 72.3315V107.444L93.6103 125ZM30.4082 125L60.8164 107.444V72.3315L30.4082 54.7753L0 72.3315V107.444L30.4082 125Z" fill="#04668C"/>
<path fill-rule="evenodd" clip-rule="evenodd" d="M92.6517 52.6686L62.2435 70.2248L55.8892 66.5561L87.3575 30.8374C84.8575 30.0635 76.2504 28.9802 61.8218 30.8374C49.8864 32.3736 40.5495 45.3389 35.6914 54.8949L33.1748 53.4419C33.9115 47.5038 36.6342 39.2289 43.7861 30.8374C52.6856 20.3953 76.4104 19.2892 92.6517 20.3738V52.6686ZM95.0381 20.5528V52.6686L96.7882 53.679L101.464 49.7659C101.203 51.7085 101.225 54.1301 101.783 56.5629L120.924 67.6136C121.334 67.5654 121.752 67.5091 122.179 67.4445C128.25 66.5246 141.071 61.0874 144.5 57.0874C131.524 61.254 106.536 66.2302 110.393 52.8016C111.096 50.3541 111.86 48.0119 112.585 45.7873C116.835 32.7556 119.768 23.7595 101.464 21.2501C99.5798 20.9917 97.4106 20.7506 95.0381 20.5528ZM116.194 67.8137L103.1 60.2544C105.106 64.2145 109.051 67.5085 116.194 67.8137ZM94.7155 55.4132L93.6107 54.7754L63.2025 72.3316V77.9364L77.179 67.4445L107.357 93.3374L63.2025 101.649V101.909H110.393C110.493 101.909 110.596 101.909 110.702 101.909C114.157 101.918 120.132 101.932 118.607 93.3374C116.643 82.2659 96.1075 59.4088 92.7147 57.0874L94.7155 55.4132ZM60.8168 79.7273V72.3316L54.1779 68.4986L13.1689 115.047L13.5071 115.242L60.8168 79.7273ZM32.9596 56.2482C32.9156 57.9187 33.0415 59.2961 33.2504 60.3016C33.6173 59.3563 34.062 58.3072 34.5806 57.1841L32.9596 56.2482ZM129.321 25.2983C129.321 36.7269 111.286 23.6912 111.286 17.4412C111.286 12.9769 114.321 10.6074 115.929 10.2983C127.893 7.99743 129.321 19.584 129.321 25.2983Z" fill="white"/>
</svg>
