<svg width="224" height="180" viewBox="0 0 224 180" fill="none" xmlns="http://www.w3.org/2000/svg">
<path fill-rule="evenodd" clip-rule="evenodd" d="M89.4584 101.124L133.162 75.8426V25.2809L89.4584 0L45.7545 25.2809V75.8426L89.4584 101.124ZM180.296 101.124L224 75.8426V25.2809L180.296 0L136.592 25.2809V75.8426L180.296 101.124ZM134.541 180L178.245 154.719V104.157L134.541 78.8764L90.8367 104.157V154.719L134.541 180ZM43.704 180L87.4079 154.719V104.157L43.704 78.8764L0 104.157V154.719L43.704 180Z" fill="#04668C"/>
<path fill-rule="evenodd" clip-rule="evenodd" d="M133.385 75.6258L89.6238 100.982L80.4792 95.6834L125.766 44.0952C122.168 42.9775 109.781 41.4129 89.0169 44.0952C71.8406 46.3139 58.4037 65.0396 51.4124 78.8412L47.7907 76.7427C48.8509 68.1663 52.7692 56.215 63.0615 44.0952C75.8689 29.0138 110.012 27.4163 133.385 28.9827V75.6258ZM136.819 29.2413V75.6258L139.337 77.0851L146.066 71.4335C145.691 74.2392 145.722 77.7367 146.526 81.2503L174.072 97.2107C174.662 97.1411 175.263 97.0598 175.878 96.9665C184.614 95.6379 203.065 87.785 208 82.0079C189.326 88.0256 153.366 95.2127 158.916 75.8179C159.928 72.283 161.027 68.9002 162.071 65.6872C168.187 46.8657 172.408 33.8727 146.066 30.2484C143.355 29.8752 140.233 29.5269 136.819 29.2413ZM167.265 97.4997L148.421 86.5819C151.308 92.3015 156.985 97.0589 167.265 97.4997ZM136.355 79.5898L134.765 78.6686L91.0039 104.025V112.12L111.118 96.9665L154.547 134.363L91.0039 146.368V146.743H158.916C159.06 146.743 159.208 146.743 159.361 146.743C164.333 146.756 172.932 146.776 170.737 134.363C167.911 118.373 138.358 85.3606 133.475 82.0079L136.355 79.5898ZM87.5706 114.706V104.025L78.0165 98.4889L19 165.718L19.4867 166L87.5706 114.706ZM47.481 80.7958C47.4177 83.2085 47.5989 85.1979 47.8995 86.6501C48.4275 85.2848 49.0675 83.7696 49.8138 82.1475L47.481 80.7958ZM186.156 36.0951C186.156 52.6014 160.201 33.774 160.201 24.7472C160.201 18.2995 164.569 14.8772 166.883 14.4308C184.101 11.1077 186.156 27.842 186.156 36.0951Z" fill="white"/>
</svg>
