<?xml version="1.0" encoding="UTF-8"?><svg id="Layer_2" xmlns="http://www.w3.org/2000/svg" width="63mm" height="72mm" viewBox="0 0 178.58 204.09"><defs><style>.cls-1{fill:#d9ead2;}.cls-1,.cls-2{stroke-width:0px;}.cls-2{fill:#002e3f;}</style></defs><polygon class="cls-1" points="177.23 51.28 89.29 .51 1.36 51.28 1.36 152.82 89.29 203.59 177.23 152.82 177.23 51.28"/><path class="cls-2" d="m87.48,70.07c-14.37.89-25.96,12.77-26.54,27.16-.33,8.31,2.92,15.87,8.33,21.26,4.14,4.12,6.4,9.77,6.4,15.61,0,6.09,0,13.02,0,15.78,0,.68.55,1.24,1.24,1.24h5.88c.41,0,.8.22.98.59.86,1.73,3,2.96,5.52,2.96s4.65-1.23,5.52-2.96c.18-.37.58-.59.99-.59h5.86c.69,0,1.25-.56,1.25-1.25v-15.77c0-5.87,2.3-11.52,6.45-15.67,5.13-5.13,8.3-12.22,8.3-20.04,0-16.27-13.69-29.34-30.18-28.31Zm8.16,73.1c0,.88-.71,1.59-1.59,1.59h-9.84c-.88,0-1.59-.71-1.59-1.59v-4.29c0-.37.3-.68.68-.68h11.67c.37,0,.68.3.68.68v4.29Zm1.09-12.65c-.16.73-.81,1.26-1.56,1.26h-11.42c-.74,0-1.38-.52-1.54-1.24l-.55-2.57c-.09-.42.23-.82.66-.82h14.3c.43,0,.75.4.66.82l-.55,2.55Zm-7.44-11.11c-11.66,0-21.1-9.45-21.1-21.1s9.45-21.1,21.1-21.1,21.1,9.45,21.1,21.1-9.45,21.1-21.1,21.1Z"/><rect class="cls-2" x="39.92" y="98.31" width="12.48" height="7.14" rx=".4" ry=".4"/><rect class="cls-2" x="126.18" y="98.69" width="12.48" height="7.14" rx=".4" ry=".4"/><rect class="cls-2" x="118.24" y="66.45" width="12.48" height="7.14" rx=".4" ry=".4" transform="translate(-14.98 100.8) rotate(-41.81)"/><rect class="cls-2" x="83.23" y="48.56" width="12.48" height="7.14" rx=".4" ry=".4" transform="translate(37.34 141.61) rotate(-90)"/><rect class="cls-2" x="48.74" y="64.69" width="12.48" height="7.14" rx=".4" ry=".4" transform="translate(50.46 155.79) rotate(-138.19)"/><rect class="cls-2" x="50.95" y="128.21" width="12.48" height="7.14" rx=".4" ry=".4" transform="translate(187.68 191.88) rotate(138.19)"/><rect class="cls-2" x="115.68" y="128.21" width="12.48" height="7.14" rx=".4" ry=".4" transform="translate(118.88 -47.72) rotate(41.81)"/></svg>