<svg width="166" height="189" viewBox="0 0 166 189" fill="none" xmlns="http://www.w3.org/2000/svg">
<path d="M90.5386 186.618C85.878 189.327 80.122 189.327 75.4614 186.618L7.46137 147.087C2.84214 144.402 7.55486e-06 139.462 7.07762e-06 134.119L0 54.8805C-4.77239e-07 49.5374 2.84213 44.5978 7.46137 41.9125L75.4614 2.38234C80.122 -0.326993 85.878 -0.326988 90.5386 2.38234L158.539 41.9125C163.158 44.5977 166 49.5374 166 54.8805L166 134.119C166 139.462 163.158 144.402 158.539 147.087L90.5386 186.618Z" fill="#04668C"/>
<path fill-rule="evenodd" clip-rule="evenodd" d="M114.036 57.9644C112.083 56.0118 108.917 56.0118 106.965 57.9644L101.536 63.3933L115.5 77.3578L120.929 71.9289C122.882 69.9763 122.882 66.8104 120.929 64.8578L114.036 57.9644ZM111.965 80.8933L98 66.9289L51.5356 113.393L65.5 127.358L111.965 80.8933ZM60.512 129.441L49.4526 118.381L46.2927 132.601L60.512 129.441ZM103.429 54.4289C107.334 50.5236 113.666 50.5236 117.571 54.4289L124.465 61.3223C128.37 65.2275 128.37 71.5592 124.465 75.4644L67.2678 132.661C66.9316 132.997 66.5065 133.231 66.0424 133.334L43.5424 138.334C42.708 138.519 41.8367 138.266 41.2323 137.661C40.6279 137.057 40.3742 136.185 40.5596 135.351L45.5596 112.851C45.6627 112.387 45.8961 111.962 46.2323 111.626L103.429 54.4289Z" fill="#F9F9F9"/>
</svg>
