<svg width="166" height="189" viewBox="0 0 166 189" fill="none" xmlns="http://www.w3.org/2000/svg">
<path d="M90.5386 186.618C85.878 189.327 80.122 189.327 75.4614 186.618L7.46137 147.087C2.84214 144.402 7.55486e-06 139.462 7.07762e-06 134.119L0 54.8805C-4.7724e-07 49.5374 2.84213 44.5978 7.46137 41.9125L75.4614 2.38234C80.122 -0.326993 85.878 -0.326988 90.5386 2.38234L158.539 41.9125C163.158 44.5977 166 49.5374 166 54.8805L166 134.119C166 139.462 163.158 144.402 158.539 147.087L90.5386 186.618Z" fill="#04668C"/>
<path fill-rule="evenodd" clip-rule="evenodd" d="M83.5 130C104.211 130 121 113.211 121 92.4999C121 71.7893 104.211 54.9999 83.5 54.9999C62.7893 54.9999 46 71.7893 46 92.4999C46 113.211 62.7893 130 83.5 130ZM83.5 135C106.972 135 126 115.972 126 92.4999C126 69.0278 106.972 49.9999 83.5 49.9999C60.0279 49.9999 41 69.0278 41 92.4999C41 115.972 60.0279 135 83.5 135Z" fill="#F9F9F9"/>
<path fill-rule="evenodd" clip-rule="evenodd" d="M86 72.4999C86 71.1192 84.8807 69.9999 83.5 69.9999C82.1193 69.9999 81 71.1192 81 72.4999V89.9999H63.5C62.1193 89.9999 61 91.1192 61 92.4999C61 93.8807 62.1193 94.9999 63.5 94.9999H81V112.5C81 113.881 82.1193 115 83.5 115C84.8807 115 86 113.881 86 112.5V94.9999H103.5C104.881 94.9999 106 93.8807 106 92.4999C106 91.1192 104.881 89.9999 103.5 89.9999H86V72.4999Z" fill="#F9F9F9"/>
</svg>
