<svg width="36" height="36" viewBox="0 0 36 36" fill="none" xmlns="http://www.w3.org/2000/svg">
<path d="M17.5885 0L33.1769 9V27L17.5885 36L2 27V9L17.5885 0Z" fill="#DAEBD2"/>
<path fill-rule="evenodd" clip-rule="evenodd" d="M15.0885 22V10H22.0885V11C22.7897 11 23.4629 11.1203 24.0885 11.3414V9C24.0885 8.44772 23.6407 8 23.0885 8H13.0885C11.9343 8 10.885 8.28921 10.1314 9.04289C9.37767 9.79657 9.08846 10.8459 9.08846 12V25C9.08846 25.675 9.26008 26.2477 9.56891 26.711C9.87356 27.1679 10.2726 27.4601 10.6412 27.6444C11.006 27.8268 11.3586 27.913 11.6116 27.9551C11.7404 27.9766 11.85 27.9877 11.9313 27.9936C11.9721 27.9965 12.0062 27.9981 12.0327 27.999C12.0459 27.9994 12.0573 27.9997 12.0666 27.9998L12.0791 28L12.0842 28L12.0864 28L12.0875 28C12.0875 28 12.0885 28 12.0885 27V28H23.0885C23.6204 28 24.0592 27.5836 24.0871 27.0524C24.1148 26.5239 23.726 26.0658 23.2011 26.0064L23.1999 26.0062C23.1955 26.0056 23.185 26.0041 23.1693 26.0015C23.1376 25.9961 23.0864 25.9863 23.0225 25.97C22.8906 25.9365 22.7264 25.881 22.5721 25.7958C22.2878 25.6387 22.0885 25.4267 22.0885 25C22.0885 24.5733 22.2878 24.3613 22.5721 24.2042C22.7264 24.119 22.8906 24.0635 23.0225 24.03C23.0864 24.0137 23.1376 24.0039 23.1693 23.9985C23.185 23.9959 23.1955 23.9944 23.1999 23.9938L23.1987 23.9939L23.1962 23.9942L23.1948 23.9943L20.1881 24.2087V24.2087L23.2011 23.9936C23.7061 23.9365 24.0885 23.5091 24.0885 23V22.6586C23.4629 22.8797 22.7897 23 22.0885 23C20.8617 23 19.721 22.6318 18.7707 22H15.0885ZM11.0885 12C11.0885 11.1541 11.2992 10.7034 11.5456 10.4571C11.7919 10.2108 12.2426 10 13.0885 10V22H12.0885V23C12.0885 22 12.0875 22 12.0875 22L12.0864 22L12.0842 22L12.0791 22L12.0666 22.0002C12.0573 22.0003 12.0459 22.0006 12.0327 22.001C12.0062 22.0019 11.9721 22.0035 11.9313 22.0064C11.85 22.0123 11.7404 22.0234 11.6116 22.0449C11.465 22.0693 11.2849 22.1085 11.0885 22.1726V12ZM11.0939 24.857C11.0904 24.9012 11.0885 24.9488 11.0885 25C11.0885 25.325 11.1668 25.5023 11.233 25.6015C11.3034 25.7071 11.4043 25.7899 11.5357 25.8556C11.671 25.9232 11.8183 25.962 11.9404 25.9824C11.999 25.9921 12.0457 25.9966 12.0738 25.9986C12.0854 25.9995 12.0935 25.9998 12.0975 26H20.2525C20.1493 25.7078 20.0885 25.3758 20.0885 25C20.0885 24.711 20.1245 24.4478 20.1881 24.2087L11.0939 24.857V24.857ZM11.0939 24.857L20.1881 24.2087C20.2071 24.137 20.2287 24.0674 20.2525 24H12.0975C12.0935 24.0002 12.0854 24.0005 12.0738 24.0014C12.0457 24.0034 11.999 24.0079 11.9404 24.0176C11.8183 24.038 11.671 24.0768 11.5357 24.1444C11.4043 24.2101 11.3034 24.2929 11.233 24.3985C11.1773 24.4821 11.1129 24.621 11.0939 24.857Z" fill="#022E40"/>
<path fill-rule="evenodd" clip-rule="evenodd" d="M19.0885 17C19.0885 15.3431 20.4316 14 22.0885 14C23.7453 14 25.0885 15.3431 25.0885 17C25.0885 18.6569 23.7453 20 22.0885 20C20.4316 20 19.0885 18.6569 19.0885 17ZM22.0885 12C19.327 12 17.0885 14.2386 17.0885 17C17.0885 19.7614 19.327 22 22.0885 22C22.856 22 23.5832 21.8271 24.2331 21.518C24.2405 21.5303 24.2483 21.5426 24.2564 21.5547L26.2564 24.5547C26.5628 25.0142 27.1836 25.1384 27.6432 24.8321C28.1027 24.5257 28.2269 23.9048 27.9205 23.4453L25.9205 20.4453C25.8913 20.4014 25.8591 20.3606 25.8246 20.3229C26.6108 19.4396 27.0885 18.2756 27.0885 17C27.0885 14.2386 24.8499 12 22.0885 12Z" fill="#022E40"/>
</svg>
